<svg id="eFemtkiCBuc1" xmlns="http://www.w3.org/2000/svg" xmlns:xlink="http://www.w3.org/1999/xlink" viewBox="0 0 300 300" shape-rendering="geometricPrecision" text-rendering="geometricPrecision" project-id="f5902720e84c4b1d86812df22da9861c" export-id="79052444d8934731bd575da46c4e6641" cached="false"><g transform="translate(42.484723 1.434023)"><path d="M127.36256,40.65389c16.31685,0,31.79948,3.53651,45.70872,9.87763L159.90465,75.88617c-9.94176-4.43222-20.95421-6.89596-32.54209-6.89596-33.00318,0-61.33869,19.98469-73.56518,48.51273h105.48792l-4.90826,18.31787h-105.93569c-.69557,4.19964-1.06404,8.50973-1.07835,12.90322l105.6411.12704-4.93028,18.31195-98.66565-.11865c5.44323,23.59787,21.32562,43.20324,42.52253,53.69145L78.11754,245.75959c-30.51199-15.25283-52.82763-44.23741-58.6628-78.75124l-10.9784-.0132l4.93028-18.31195l4.54215.00546c.01198-4.35448.28342-8.64854.79982-12.86784h-12.24157l4.90826-18.31787h11.22609C36.2638,73.02714,77.99498,40.6539,127.36257,40.6539l-.00001-.00001Z" fill="#0b2873" stroke-width="0"/></g><g transform="matrix(2.062575 0 0 2.049801-505.020589-15.896184)"><path d="M341.21222,93.10162c15.77673,0,28.5663,12.66891,28.5663,28.2968s-12.78957,28.2968-28.5663,28.2968c-10.16294,0-19.08634-5.25708-24.14995-13.17572l25.27149-12.87421-28.59222-10.03497c3.41475-11.84074,14.42082-20.50871,27.47068-20.50871v.00001Z" fill="#ffd700" stroke="#000" stroke-width="3"/><ellipse rx="3.208709" ry="2.750322" transform="matrix(1.460589 0 0 1.431767 331.832194 106.761357)" stroke-width="0"/></g></svg>
